<svg width="44" height="44" viewBox="0 0 44 44" fill="none" xmlns="http://www.w3.org/2000/svg">
  <circle cx="22" cy="22" r="14" fill="rgba(16,185,129,0.08)" stroke="#10b981" stroke-width="1.5"/>
  <path d="M22 14c-4.4 0-8 3.6-8 8 0 1.4.4 2.8 1 3.9L14 30l4.2-1.1c1.1.6 2.4.9 3.8.9 4.4 0 8-3.6 8-8s-3.6-8-8-8z" stroke="#10b981" stroke-width="1.5" fill="none" stroke-linejoin="round"/>
  <path d="M19 20c.2.5.5 1 .9 1.5.9 1 2 1.8 3.3 2.1l.5.1 1.3-1.3c.1-.1.3-.2.5-.1l2.5 1.1c.2.1.3.3.2.5-.3 1.3-1.5 2.1-2.8 2-3.2-.5-5.7-3-6.2-6.2-.1-1.3.7-2.5 2-2.8.2 0 .4.1.5.2l1.1 2.5c.1.2 0 .4-.1.5L21.3 21l-.3-.3" stroke="#10b981" stroke-width="1.2" fill="none" stroke-linecap="round"/>
</svg>
